<svg width="817" height="278" viewBox="0 0 817 278" fill="none" xmlns="http://www.w3.org/2000/svg">
<path fill-rule="evenodd" clip-rule="evenodd" d="M0 56.2L19.1817 88.7797C39.0739 122.174 78.1478 187.333 116.511 219.913C155.585 253.307 194.659 253.307 233.733 229.687C272.097 206.067 311.17 159.641 350.244 149.867C389.318 140.907 427.682 168.6 466.756 182.446C505.83 196.293 544.904 196.293 583.267 182.446C622.341 168.6 661.415 140.907 700.489 107.513C738.852 74.9333 777.926 37.4667 797.818 18.7333L817 0V281H797.818C777.926 281 738.852 281 700.489 281C661.415 281 622.341 281 583.267 281C544.904 281 505.83 281 466.756 281C427.682 281 389.318 281 350.244 281C311.17 281 272.097 281 233.733 281C194.659 281 155.585 281 116.511 281C78.1478 281 39.0739 281 19.1817 281H0V56.2Z" fill="#0099FF"/>
</svg>
